<svg width="24" height="24" viewBox="0 0 24 24" fill="none" xmlns="http://www.w3.org/2000/svg">
<path fill-rule="evenodd" clip-rule="evenodd" d="M12 2.75C6.89137 2.75 2.75 6.89137 2.75 12C2.75 13.3878 3.05547 14.7024 3.60192 15.882C3.62923 15.941 3.65713 16.0006 3.68536 16.0609C4.11329 16.9748 4.6155 18.0473 4.22537 19.4049C4.1449 19.6849 4.01216 19.9705 3.91035 20.1895C3.88804 20.2375 3.86722 20.2822 3.84876 20.3231C3.72786 20.5905 3.66801 20.7644 3.65615 20.9088C3.64282 21.0712 3.78575 21.2027 3.94639 21.1759C4.32861 21.1122 4.60294 20.9721 4.96893 20.7851C5.09745 20.7194 5.23727 20.648 5.39704 20.5721C5.9934 20.2886 6.71157 20.0525 7.69721 20.2843L7.52552 21.0144L7.69722 20.2843C7.90396 20.3329 8.35487 20.4943 9.09847 20.7604L9.09881 20.7605L9.09903 20.7606L9.22888 20.807C10.045 21.0989 10.9353 21.25 12 21.25C17.1086 21.25 21.25 17.1086 21.25 12C21.25 6.89137 17.1086 2.75 12 2.75ZM1.25 12C1.25 6.06294 6.06294 1.25 12 1.25C17.9371 1.25 22.75 6.06294 22.75 12C22.75 17.9371 17.9371 22.75 12 22.75C10.786 22.75 9.72211 22.5765 8.72367 22.2194L8.97627 21.5132L8.72366 22.2194C7.83036 21.8998 7.46428 21.7705 7.35382 21.7445C6.82155 21.6193 6.46591 21.7249 6.04089 21.9269C5.96065 21.965 5.87095 22.0113 5.77258 22.0621C5.37238 22.2688 4.82849 22.5496 4.19291 22.6555L4.06965 21.9157L4.1929 22.6555C3.06842 22.8429 2.06787 21.9222 2.16118 20.7861C2.19594 20.3628 2.35571 19.9844 2.48193 19.7052C2.51477 19.6325 2.54526 19.5665 2.57345 19.5055C2.66921 19.2981 2.73848 19.148 2.78372 18.9906C3.01547 18.1841 2.74237 17.5948 2.26416 16.5628L2.24087 16.5125L2.9214 16.1973L2.24087 16.5125C1.60482 15.1395 1.25 13.6102 1.25 12ZM7.25 10C7.25 9.58579 7.58579 9.25 8 9.25H16C16.4142 9.25 16.75 9.58579 16.75 10C16.75 10.4142 16.4142 10.75 16 10.75H8C7.58579 10.75 7.25 10.4142 7.25 10ZM8 13.25C7.58579 13.25 7.25 13.5858 7.25 14C7.25 14.4142 7.58579 14.75 8 14.75H12C12.4142 14.75 12.75 14.4142 12.75 14C12.75 13.5858 12.4142 13.25 12 13.25H8Z" fill="#E8EAED"/>
</svg>
